<svg width="139" height="25" viewBox="0 0 139 25" fill="none" xmlns="http://www.w3.org/2000/svg">
<path d="M12.75 9.90625C12.5284 7.31534 10.4062 5.73864 6.8608 5.73864C3.31534 5.73864 1.05682 7.28125 1.07386 9.90625C1.05682 11.9176 2.34375 13.2131 4.96023 13.6989L7.24432 14.1335C8.3267 14.3466 8.82102 14.6875 8.83807 15.267C8.82102 15.9233 8.08807 16.358 7.02273 16.358C5.83807 16.358 5.03693 15.8466 4.85795 14.892L0.741477 14.9943C1.03977 17.5852 3.2642 19.2472 7.00568 19.2472C10.5085 19.2472 13.0568 17.5 13.0739 14.8068C13.0568 12.8977 11.7955 11.7642 9.1875 11.2614L6.66477 10.7841C5.55682 10.5625 5.19886 10.1705 5.20739 9.66761C5.19886 9.00284 5.97443 8.59375 6.9375 8.59375C8.03693 8.59375 8.80398 9.18182 8.9233 10.0085L12.75 9.90625ZM15.1257 19H19.2933V5.90909H15.1257V19ZM17.2138 4.38352C18.3984 4.38352 19.353 3.48864 19.353 2.3892C19.353 1.28977 18.3984 0.403408 17.2138 0.403408C16.0376 0.403408 15.0746 1.28977 15.0746 2.3892C15.0746 3.48864 16.0376 4.38352 17.2138 4.38352ZM21.946 19H26.1136V11.2528C26.1136 9.95739 26.8722 9.13068 27.9631 9.13068C29.0455 9.13068 29.7614 9.8892 29.7614 11.0994V19H33.767V11.1847C33.767 9.93182 34.4574 9.13068 35.608 9.13068C36.6648 9.13068 37.4148 9.83807 37.4148 11.142V19H41.5824V10.1875C41.5824 7.41761 39.8778 5.73864 37.4062 5.73864C35.4716 5.73864 33.946 6.75284 33.4602 8.3125H33.3239C32.9744 6.74432 31.5682 5.73864 29.7528 5.73864C27.9631 5.73864 26.5994 6.71875 26.054 8.3125H25.9091V5.90909H21.946V19ZM44.1648 23.9091H48.3324V16.8778H48.4176C48.946 18.0881 50.1222 19.1875 52.0994 19.1875C54.9972 19.1875 57.3324 16.9205 57.3324 12.4631C57.3324 7.84375 54.8608 5.73864 52.125 5.73864C50.054 5.73864 48.9205 6.94886 48.4176 8.15057H48.2898V5.90909H44.1648V23.9091ZM48.2472 12.4545C48.2472 10.3153 49.1335 8.99432 50.6591 8.99432C52.2017 8.99432 53.054 10.3494 53.054 12.4545C53.054 14.5682 52.2017 15.9403 50.6591 15.9403C49.1335 15.9403 48.2472 14.5767 48.2472 12.4545ZM63.6839 1.54545H59.5163V19H63.6839V1.54545ZM72.456 19.2472C75.8906 19.2472 78.1491 17.5852 78.6264 15.0114L74.7997 14.9006C74.4759 15.7699 73.6236 16.2386 72.5327 16.2386C70.9304 16.2386 69.9418 15.1733 69.9418 13.571V13.4602H78.669V12.4205C78.669 8.10795 76.044 5.73864 72.3281 5.73864C68.3736 5.73864 65.8338 8.44886 65.8338 12.5057C65.8338 16.6989 68.3395 19.2472 72.456 19.2472ZM69.9418 11.0398C70.0014 9.7358 71.0327 8.74716 72.4134 8.74716C73.7855 8.74716 74.7741 9.7017 74.7912 11.0398H69.9418Z" fill="#333333"/>
<path d="M80.7976 19H88.63C92.4908 19 94.7067 16.9375 94.7067 14.1165C94.7067 11.5938 92.8743 10.0085 90.7607 9.91477V9.74432C92.6783 9.34375 94.0249 7.95455 94.0249 5.96023C94.0249 3.3267 91.9964 1.54545 88.076 1.54545H80.7976V19ZM85.0163 15.5994V11.4403H87.701C89.3118 11.4403 90.3004 12.2926 90.3004 13.6307C90.3004 14.8665 89.4482 15.5994 87.6243 15.5994H85.0163ZM85.0163 8.72159V4.89489H87.4197C88.826 4.89489 89.7209 5.61932 89.7209 6.77841C89.7209 8.00568 88.7322 8.72159 87.3516 8.72159H85.0163ZM100.903 1.54545H96.7351V19H100.903V1.54545ZM109.666 19.2472C113.783 19.2472 116.28 16.5284 116.28 12.4972C116.28 8.45739 113.783 5.73864 109.666 5.73864C105.55 5.73864 103.053 8.45739 103.053 12.4972C103.053 16.5284 105.55 19.2472 109.666 19.2472ZM109.692 16.1023C108.149 16.1023 107.297 14.6364 107.297 12.4716C107.297 10.2983 108.149 8.82386 109.692 8.82386C111.183 8.82386 112.036 10.2983 112.036 12.4716C112.036 14.6364 111.183 16.1023 109.692 16.1023ZM124.517 24.071C128.463 24.071 131.156 22.2727 131.156 19.0511V5.90909H127.006V8.15057H126.886C126.384 6.94886 125.241 5.73864 123.179 5.73864C120.443 5.73864 117.963 7.84375 117.963 12.4375C117.963 16.8864 120.324 18.821 123.196 18.821C125.122 18.821 126.409 17.9261 126.903 16.7159H127.048V19.017C127.048 20.5852 126.026 21.1818 124.628 21.1818C123.29 21.1818 122.489 20.6705 122.267 19.9716L118.321 20.1932C118.628 22.375 120.784 24.071 124.517 24.071ZM124.645 15.7869C123.102 15.7869 122.241 14.5341 122.241 12.4375C122.241 10.3494 123.094 8.99432 124.645 8.99432C126.17 8.99432 127.057 10.3153 127.057 12.4375C127.057 14.5426 126.162 15.7869 124.645 15.7869ZM136.157 19.2472C137.325 19.2472 138.356 18.2585 138.373 17.0312C138.356 15.821 137.325 14.8409 136.157 14.8409C134.93 14.8409 133.924 15.821 133.941 17.0312C133.924 18.2585 134.93 19.2472 136.157 19.2472Z" fill="#5E7D8E"/>
</svg>
