<svg width="16" height="16" viewBox="0 0 16 16" fill="none" xmlns="http://www.w3.org/2000/svg">
<g clip-path="url(#clip0)">
<path d="M16 3.038C15.4113 3.29934 14.7787 3.47534 14.1147 3.55467C14.7927 3.14867 15.3133 2.50534 15.558 1.73867C14.924 2.11467 14.2213 2.388 13.4733 2.53534C12.8753 1.89734 12.0213 1.49867 11.0773 1.49867C8.958 1.49867 7.40067 3.476 7.87933 5.52867C5.152 5.392 2.73333 4.08534 1.114 2.09934C0.254 3.57467 0.668 5.50467 2.12933 6.482C1.592 6.46467 1.08533 6.31734 0.643333 6.07134C0.607333 7.592 1.69733 9.01467 3.276 9.33134C2.814 9.45667 2.308 9.486 1.79333 9.38734C2.21067 10.6913 3.42267 11.64 4.86 11.6667C3.48 12.7487 1.74133 13.232 0 13.0267C1.45267 13.958 3.17867 14.5013 5.032 14.5013C11.1267 14.5013 14.57 9.354 14.362 4.73734C15.0033 4.274 15.56 3.696 16 3.038Z" fill="#4F4F4F"/>
</g>
<defs>
<clipPath id="clip0">
<rect width="16" height="16" fill="white"/>
</clipPath>
</defs>
</svg>
